<svg width="32" height="32" viewBox="0 0 32 32" fill="none" xmlns="http://www.w3.org/2000/svg">
<path d="M25.4667 4.97328C25.1164 4.62402 24.7004 4.34759 24.2427 4.15994C23.785 3.97229 23.2947 3.87712 22.8 3.87994L9.12005 3.99994C8.08969 4.03478 7.11454 4.47412 6.40579 5.2228C5.69704 5.97148 5.31175 6.96923 5.33338 7.99994V26.5599C5.33337 26.8148 5.40641 27.0644 5.54386 27.279C5.6813 27.4937 5.8774 27.6644 6.1089 27.7711C6.34041 27.8777 6.59763 27.9158 6.8501 27.8807C7.10256 27.8456 7.33969 27.739 7.53338 27.5733L16 20.3866L24.4667 27.6933C24.7101 27.895 25.0173 28.0037 25.3334 27.9999C25.5263 27.9986 25.7169 27.9577 25.8934 27.8799C26.1248 27.7728 26.3207 27.6016 26.4578 27.3865C26.5948 27.1715 26.6673 26.9216 26.6667 26.6666V7.87994C26.6689 7.34016 26.564 6.8053 26.358 6.30635C26.152 5.80741 25.8491 5.3543 25.4667 4.97328ZM24 23.7733L16.8667 17.6133C16.6196 17.4211 16.3128 17.322 16 17.3333C15.6823 17.3333 15.3749 17.4467 15.1334 17.6533L8.00005 23.6799V7.99994C7.97792 7.67167 8.08576 7.34787 8.30029 7.09841C8.51482 6.84896 8.81883 6.69387 9.14672 6.66661L22.84 6.54661C22.9816 6.54684 23.1217 6.57526 23.2522 6.6302C23.3827 6.68514 23.5009 6.7655 23.6 6.86661C23.7304 7.00065 23.8329 7.15924 23.9016 7.33319C23.9703 7.50713 24.0037 7.69297 24 7.87994V23.7733Z" fill="#484C52"/>
<path d="M24 23.7733L16.8667 17.6133C16.6196 17.4211 16.3128 17.322 16 17.3333C15.6823 17.3333 15.3749 17.4467 15.1334 17.6533L8.00005 23.6799V7.99994C7.97792 7.67167 8.08576 7.34787 8.30029 7.09841C8.51482 6.84896 8.81883 6.69387 9.14672 6.66661L22.84 6.54661C22.9816 6.54684 23.1217 6.57526 23.2522 6.6302C23.3827 6.68514 23.5009 6.7655 23.6 6.86661C23.7304 7.00065 23.8329 7.15924 23.9016 7.33319C23.9703 7.50713 24.0037 7.69297 24 7.87994V23.7733Z" fill="#484C52"/>
</svg>
