<svg width="437" height="394" viewBox="0 0 437 394" fill="none" xmlns="http://www.w3.org/2000/svg">
<g clip-path="url(#clip0_182_62)">
<path d="M327.658 319.963L319.905 317.552C321.231 311.921 322.465 305.755 323.588 299.259C328.984 295.56 334.379 291.75 339.683 287.849C339.959 291.217 340.143 294.474 340.309 297.695C336.184 305.682 331.967 313.172 327.658 319.963ZM183.041 67.0807C186.116 64.7066 189.191 62.4982 192.193 60.3818C192.322 58.8175 192.469 57.3453 192.617 55.9098C195.618 54.7504 198.583 53.6093 201.511 52.5603C205.029 57.198 209.08 62.9767 213.481 69.6756C212.082 71.1295 210.682 72.6201 209.264 74.1476C204.513 75.7671 199.688 77.4603 194.882 79.1718C195.434 73.9636 196.042 69.1235 196.723 64.7619C194.863 67.7432 192.985 70.9086 191.07 74.2212L181.217 74.5893C181.807 71.9576 182.414 69.4547 183.041 67.0807ZM429.937 194.12C425.242 199.843 419.717 205.898 413.529 212.21C413.419 216.002 413.29 219.83 413.143 223.621C410.804 226.896 408.391 230.191 405.85 233.54C403.353 223.259 400.577 213.047 397.526 202.917C393.884 197.158 390.12 191.476 386.237 185.875C376.242 183.411 366.224 181.043 356.183 178.771C353.034 175.753 349.793 172.753 346.515 169.717L341.801 172.551C344.287 178.551 346.699 184.55 349.02 190.568C352.561 188.644 356.091 186.7 359.609 184.734C364.286 188.746 368.798 192.703 373.126 196.568C360.308 205.53 346.165 214.953 331.267 224.467C323.917 208.349 316.224 192.39 308.192 176.6L303.11 177.41C311.417 196.176 319.276 215.137 326.682 234.276C334.435 230.356 342.003 226.455 349.314 222.608C346.81 231.276 344.121 239.908 341.285 248.355C333.551 255.606 325.558 262.746 317.511 269.721C317.897 279.549 318.1 288.916 318.063 297.584C313.588 300.658 309.132 303.639 304.638 306.528C295.467 318.822 286.407 329.477 277.807 337.685C270.588 338.642 263.406 339.489 256.279 340.317C249.551 329.453 243.332 318.282 237.643 306.841C239.282 300.602 241.031 293.94 242.799 286.892C238.434 274.635 233.812 261.256 229.135 247.324C213.463 248.281 197.957 249.109 182.801 249.79C174.052 241.558 165.433 233.19 156.946 224.688C158.051 211.143 159.432 197.304 161.034 183.538C169.266 173.269 177.774 163 186.319 152.914C202.451 149.933 218.932 147.044 235.304 144.302L238.379 157.037C245.101 161.325 251.841 165.705 258.599 170.085L266.224 159.429C276.463 162.079 286.609 164.766 296.591 167.472L304.159 162.889C305.191 159.135 306.148 155.436 307.124 151.773C300.366 150.522 293.497 149.234 286.573 147.982L279.538 136.609C277.862 135.818 276.223 135.008 274.584 134.18C273.295 138.836 271.988 143.584 270.625 148.387C267.457 144.523 264.308 140.713 261.141 136.94C261.307 133.812 261.472 130.72 261.583 127.665C257.485 124.594 253.366 121.551 249.226 118.537C246.794 117.403 244.357 116.28 241.915 115.169C242.154 118.095 242.339 121.076 242.578 124.095C247.679 127.334 252.854 130.628 258.029 133.996C255.414 136.867 252.78 139.811 250.11 142.811L238.913 128.696C236.243 125.806 233.628 122.954 230.995 120.156C224.824 123.01 218.673 125.905 212.542 128.843C208.123 135.21 203.648 141.762 199.191 148.442C192.672 147.522 186.227 146.639 179.836 145.774C179.745 138.076 179.726 130.376 179.781 122.678C187.829 123.009 195.968 123.377 204.218 123.819C201.751 119.917 199.32 116.089 196.926 112.372C195.561 109.401 194.18 106.438 192.782 103.483C198.919 101.6 205.07 99.7661 211.235 97.9801C214.734 94.0602 218.159 90.2875 221.566 86.6804L229.632 86.1651C229.124 84.2046 228.602 82.2476 228.067 80.2944L233.223 75.0862C234.512 77.8835 235.819 80.8097 237.127 83.8463C244.604 83.9935 252.08 84.2143 259.539 84.4536C261.454 80.2208 263.24 76.2088 264.971 72.4545L273.479 74.6813C272.345 72.1364 271.172 69.6087 269.962 67.0991C274.087 66.2525 278.102 65.4428 282.116 64.6698C280.682 63.6072 279.233 62.5642 277.77 61.5412C274.132 62.128 270.497 62.7414 266.868 63.3816C265.381 61.3308 263.859 59.3061 262.301 57.3084L261.712 57.29C261.784 57.1451 261.864 57.0038 261.951 56.8668C261.349 56.0869 260.722 55.3259 260.073 54.5847C261.454 54.0142 262.835 53.4437 264.179 52.9284C265.266 51.0881 266.15 49.7262 267.126 48.2355L263.074 47.8859C261.074 49.1177 259.109 50.4065 257.182 51.7506C255.561 53.8486 253.867 56.2226 252.099 58.7623C254.309 60.2162 256.537 61.6885 258.784 63.2344C256.924 66.9887 255.008 71.1479 252.946 75.6015L242.854 78.5092C241.059 74.1852 239.181 69.8964 237.219 65.6452C233.407 67.1359 229.503 68.6634 225.58 70.2829L220.185 67.9457C220.59 64.0257 221.032 60.4002 221.474 57.1796C224.752 55.6705 227.956 54.2903 231.087 52.9836C233.775 49.5422 236.354 46.708 238.748 44.518C244.825 43.285 250.662 42.2728 256.224 41.4447C270.349 42.0888 285.099 43.1194 300.034 44.3708C320.733 43.6715 345.834 42.7697 356.902 42.236C322.229 14.8597 279.327 -0.0218929 235.138 2.41744e-05C188.215 2.41744e-05 145.178 16.4527 111.331 43.8003L118.126 44.7941C119.47 48.1619 120.999 51.8058 122.803 55.8914C123.393 57.971 124.037 60.1978 124.737 62.4982C121.066 66.0051 117.558 69.6773 114.222 73.5035C113.491 75.4616 112.791 77.431 112.122 79.411C109.507 80.8833 106.966 82.3924 104.425 83.9015C102.767 89.4041 101.239 95.2196 99.8209 101.256C96.7712 100.825 93.7203 100.401 90.6684 99.9861C88.8566 89.3564 87.4438 78.6626 86.4328 67.9273C77.2803 78.4356 69.1222 89.8458 62.3269 102.158C63.3398 101.311 64.2789 100.483 65.3102 99.6548C67.9436 112.961 71.1111 127.555 75.4203 143.437C66.765 149.013 58.9937 154.552 52.2904 159.889C47.7975 164.033 43.5544 168.439 39.5837 173.085C38.6445 180.925 38 188.893 38 196.991C38 213.793 40.3388 230.025 44.2797 245.613C47.7786 246.883 51.5907 248.134 55.8262 249.367C62.2717 256.728 69.6194 264.2 77.7039 271.58C79.4717 276.862 81.3501 282.052 83.3206 287.149C93.8174 293.683 105.29 300.013 117.242 305.958C114.082 315.636 111.257 325.42 108.771 335.293L95.1433 335.624C113.438 354.154 135.239 368.859 159.277 378.885C183.315 388.91 209.109 394.055 235.157 394.018C342.188 394.018 429.109 308.7 432 202.42C431.282 199.641 430.711 196.936 429.937 194.12Z" fill="#A46C6C"/>
</g>
<rect x="38" y="106" width="399" height="74" rx="12" fill="#9B0101"/>
<rect width="25.9303" height="39.7228" rx="6" transform="matrix(0.615626 -0.788038 0.843816 0.536632 355.18 175.059)" fill="#9B0101"/>
<rect x="157" y="135" width="192" height="23" rx="11" fill="#CD9696"/>
<rect x="56" y="135" width="38" height="23" rx="11" fill="#CD9696"/>
<rect x="106" y="135" width="38" height="23" rx="11" fill="#CD9696"/>
<path d="M397.414 149.916C399.814 149.723 402.224 149.723 404.623 149.916C405.93 149.993 407.231 150.156 408.517 150.406C411.299 150.969 413.116 151.889 413.895 153.371C414.48 154.529 414.48 155.906 413.895 157.064C413.116 158.546 411.371 159.525 408.488 160.029C407.203 160.288 405.902 160.457 404.595 160.533C403.383 160.667 402.172 160.667 400.947 160.667H398.741C398.279 160.607 397.832 160.578 397.4 160.578C396.092 160.51 394.791 160.347 393.507 160.088C390.724 159.555 388.907 158.606 388.128 157.123C387.828 156.548 387.669 155.907 387.667 155.254C387.661 154.598 387.814 153.951 388.114 153.371C388.878 151.889 390.695 150.925 393.507 150.406C394.797 150.152 396.102 149.989 397.414 149.916ZM401.004 127.333C405.838 127.333 409.757 131.363 409.757 136.334C409.757 141.305 405.838 145.335 401.004 145.335C396.171 145.335 392.252 141.305 392.252 136.334C392.252 131.363 396.171 127.333 401.004 127.333Z" fill="#CD9696"/>
<rect width="364" height="73.6926" rx="12" transform="matrix(-1 0 0 1 364 215)" fill="#9B0101"/>
<rect width="25.0235" height="37.2246" rx="6" transform="matrix(-0.581977 -0.813205 -0.821459 0.570268 74.643 283.772)" fill="#9B0101"/>
<rect x="88" y="240" width="192" height="23" rx="11" fill="#CD9696"/>
<rect x="296" y="240" width="40" height="23" rx="11" fill="#CD9696"/>
<path d="M32.4141 257.916C34.8136 257.723 37.224 257.723 39.6235 257.916C40.9301 257.993 42.2306 258.156 43.5166 258.406C46.2994 258.969 48.1161 259.889 48.8948 261.371C49.4795 262.529 49.4795 263.906 48.8948 265.064C48.1161 266.546 46.3715 267.525 43.4877 268.029C42.2027 268.288 40.902 268.457 39.5947 268.533C38.3835 268.667 37.1723 268.667 35.9467 268.667H33.7406C33.2792 268.607 32.8323 268.578 32.3997 268.578C31.0923 268.51 29.7913 268.347 28.5066 268.088C25.7238 267.555 23.907 266.606 23.1284 265.123C22.8279 264.548 22.6694 263.907 22.6668 263.254C22.6608 262.598 22.8144 261.951 23.114 261.371C23.8782 259.889 25.695 258.925 28.5066 258.406C29.7969 258.152 31.1024 257.989 32.4141 257.916ZM36.0044 235.333C40.8381 235.333 44.7566 239.363 44.7566 244.334C44.7566 249.305 40.8381 253.335 36.0044 253.335C31.1707 253.335 27.2522 249.305 27.2522 244.334C27.2522 239.363 31.1707 235.333 36.0044 235.333Z" fill="#CD9696"/>
<defs>
<clipPath id="clip0_182_62">
<rect width="394" height="394" fill="white" transform="translate(38)"/>
</clipPath>
</defs>
</svg>
