<svg width="179" height="171" viewBox="0 0 179 171" fill="none" xmlns="http://www.w3.org/2000/svg">
<path d="M13 19.6332C13 10.3217 22.5026 4.02958 31.0752 7.6648L92 33.5V138.025C92 138.732 91.2863 139.215 90.6296 138.954L23.074 112.017C16.9909 109.591 13 103.704 13 97.1547V19.6332Z" fill="#9B0101"/>
<path d="M170 20.1058C170 10.8014 160.511 4.50944 151.94 8.13081L91 33.8799V138.027C91 138.733 91.7127 139.217 92.3692 138.956L159.908 112.123C166 109.702 170 103.809 170 97.2532V20.1058Z" fill="url(#paint0_linear_8_24)"/>
<path d="M33 76.25C33 66.9992 40.4992 59.5 49.75 59.5C59.0008 59.5 66.5 66.9992 66.5 76.25V129.5L33 116V76.25Z" fill="white"/>
<path d="M3.293 163C3.05833 163 2.86633 162.925 2.717 162.776C2.56767 162.627 2.493 162.435 2.493 162.2V141.4C2.493 141.165 2.56767 140.973 2.717 140.824C2.86633 140.675 3.05833 140.6 3.293 140.6H11.773C14.4397 140.6 16.541 141.219 18.077 142.456C19.613 143.672 20.381 145.432 20.381 147.736C20.381 149.293 20.0077 150.595 19.261 151.64C18.5143 152.685 17.5117 153.464 16.253 153.976L20.765 161.976C20.829 162.104 20.861 162.221 20.861 162.328C20.861 162.499 20.797 162.659 20.669 162.808C20.541 162.936 20.381 163 20.189 163H16.637C16.253 163 15.965 162.904 15.773 162.712C15.581 162.499 15.4423 162.307 15.357 162.136L11.453 154.808H7.581V162.2C7.581 162.435 7.50633 162.627 7.357 162.776C7.20767 162.925 7.01567 163 6.781 163H3.293ZM7.581 150.744H11.677C12.8503 150.744 13.7143 150.477 14.269 149.944C14.845 149.411 15.133 148.664 15.133 147.704C15.133 146.744 14.8557 145.987 14.301 145.432C13.7463 144.877 12.8717 144.6 11.677 144.6H7.581V150.744ZM30.0655 163.32C28.8282 163.32 27.7295 163.043 26.7695 162.488C25.8308 161.912 25.0948 161.091 24.5615 160.024C24.0495 158.936 23.7935 157.624 23.7935 156.088V147.16C23.7935 146.925 23.8682 146.733 24.0175 146.584C24.1668 146.435 24.3482 146.36 24.5615 146.36H27.9535C28.1882 146.36 28.3802 146.435 28.5295 146.584C28.6788 146.733 28.7535 146.925 28.7535 147.16V155.896C28.7535 158.285 29.7988 159.48 31.8895 159.48C32.8922 159.48 33.6815 159.171 34.2575 158.552C34.8548 157.912 35.1535 157.027 35.1535 155.896V147.16C35.1535 146.925 35.2282 146.733 35.3775 146.584C35.5268 146.435 35.7188 146.36 35.9535 146.36H39.3455C39.5588 146.36 39.7402 146.435 39.8895 146.584C40.0388 146.733 40.1135 146.925 40.1135 147.16V162.2C40.1135 162.435 40.0388 162.627 39.8895 162.776C39.7402 162.925 39.5588 163 39.3455 163H36.2095C35.9748 163 35.7828 162.925 35.6335 162.776C35.4842 162.627 35.4095 162.435 35.4095 162.2V160.952C34.8548 161.72 34.1402 162.307 33.2655 162.712C32.3908 163.117 31.3242 163.32 30.0655 163.32ZM49.037 163.32C47.9063 163.32 46.893 163.107 45.997 162.68C45.101 162.232 44.3863 161.635 43.853 160.888C43.3197 160.141 43.053 159.309 43.053 158.392C43.053 156.877 43.661 155.683 44.877 154.808C46.1143 153.933 47.7357 153.336 49.741 153.016L53.933 152.408V151.832C53.933 151 53.741 150.36 53.357 149.912C52.973 149.464 52.301 149.24 51.341 149.24C50.637 149.24 50.0717 149.379 49.645 149.656C49.2183 149.933 48.8877 150.296 48.653 150.744C48.4823 151.021 48.237 151.16 47.917 151.16H44.877C44.6423 151.16 44.461 151.096 44.333 150.968C44.205 150.819 44.1517 150.648 44.173 150.456C44.173 150.093 44.3117 149.667 44.589 149.176C44.8663 148.685 45.293 148.205 45.869 147.736C46.445 147.245 47.181 146.84 48.077 146.52C48.973 146.2 50.0717 146.04 51.373 146.04C52.717 146.04 53.869 146.2 54.829 146.52C55.789 146.84 56.557 147.288 57.133 147.864C57.709 148.44 58.1357 149.112 58.413 149.88C58.6903 150.627 58.829 151.437 58.829 152.312V162.2C58.829 162.435 58.7543 162.627 58.605 162.776C58.4557 162.925 58.2637 163 58.029 163H54.893C54.6797 163 54.4983 162.925 54.349 162.776C54.1997 162.627 54.125 162.435 54.125 162.2V161.016C53.8477 161.421 53.4743 161.805 53.005 162.168C52.5357 162.509 51.9703 162.787 51.309 163C50.669 163.213 49.9117 163.32 49.037 163.32ZM50.317 159.992C51.021 159.992 51.6503 159.843 52.205 159.544C52.7597 159.245 53.197 158.787 53.517 158.168C53.837 157.549 53.997 156.771 53.997 155.832V155.288L51.021 155.768C49.869 155.96 49.0263 156.248 48.493 156.632C47.9597 157.016 47.693 157.485 47.693 158.04C47.693 158.445 47.8103 158.797 48.045 159.096C48.301 159.395 48.6317 159.619 49.037 159.768C49.4423 159.917 49.869 159.992 50.317 159.992ZM63.4715 163C63.2582 163 63.0768 162.925 62.9275 162.776C62.7782 162.627 62.7035 162.435 62.7035 162.2V147.16C62.7035 146.925 62.7782 146.733 62.9275 146.584C63.0768 146.435 63.2582 146.36 63.4715 146.36H66.6075C66.8422 146.36 67.0342 146.435 67.1835 146.584C67.3328 146.733 67.4075 146.925 67.4075 147.16V148.408C67.9622 147.725 68.6768 147.16 69.5515 146.712C70.4262 146.264 71.4928 146.04 72.7515 146.04C74.0102 146.04 75.1088 146.328 76.0475 146.904C77.0075 147.459 77.7542 148.28 78.2875 149.368C78.8422 150.435 79.1195 151.736 79.1195 153.272V162.2C79.1195 162.435 79.0342 162.627 78.8635 162.776C78.7142 162.925 78.5328 163 78.3195 163H74.9275C74.6928 163 74.5008 162.925 74.3515 162.776C74.2022 162.627 74.1275 162.435 74.1275 162.2V153.464C74.1275 152.333 73.8502 151.459 73.2955 150.84C72.7622 150.2 71.9728 149.88 70.9275 149.88C69.9248 149.88 69.1248 150.2 68.5275 150.84C67.9302 151.459 67.6315 152.333 67.6315 153.464V162.2C67.6315 162.435 67.5568 162.627 67.4075 162.776C67.2582 162.925 67.0768 163 66.8635 163H63.4715ZM90.7615 170.04C89.1828 170.04 87.8708 169.827 86.8255 169.4C85.7802 168.995 84.9482 168.493 84.3295 167.896C83.7322 167.32 83.3055 166.744 83.0495 166.168C82.7935 165.592 82.6548 165.144 82.6335 164.824C82.6122 164.589 82.6868 164.397 82.8575 164.248C83.0282 164.099 83.2202 164.024 83.4335 164.024H86.8575C87.0495 164.024 87.2095 164.067 87.3375 164.152C87.4868 164.259 87.6042 164.429 87.6895 164.664C87.7962 164.92 87.9455 165.187 88.1375 165.464C88.3295 165.763 88.6175 166.008 89.0015 166.2C89.4068 166.392 89.9402 166.488 90.6015 166.488C91.3482 166.488 91.9668 166.381 92.4575 166.168C92.9482 165.955 93.3108 165.592 93.5455 165.08C93.8015 164.568 93.9295 163.875 93.9295 163V160.856C93.4175 161.411 92.7668 161.869 91.9775 162.232C91.2095 162.595 90.2602 162.776 89.1295 162.776C88.0202 162.776 87.0388 162.605 86.1855 162.264C85.3535 161.901 84.6602 161.4 84.1055 160.76C83.5508 160.099 83.1242 159.309 82.8255 158.392C82.5268 157.475 82.3562 156.44 82.3135 155.288C82.2922 154.712 82.2922 154.147 82.3135 153.592C82.3562 152.483 82.5268 151.469 82.8255 150.552C83.1242 149.635 83.5508 148.845 84.1055 148.184C84.6602 147.501 85.3535 146.979 86.1855 146.616C87.0388 146.232 88.0202 146.04 89.1295 146.04C90.3028 146.04 91.3055 146.264 92.1375 146.712C92.9695 147.16 93.6522 147.715 94.1855 148.376V147.16C94.1855 146.947 94.2602 146.765 94.4095 146.616C94.5588 146.445 94.7402 146.36 94.9535 146.36H98.0895C98.3028 146.36 98.4842 146.445 98.6335 146.616C98.8042 146.765 98.8895 146.947 98.8895 147.16L98.9215 162.552C98.9215 164.152 98.6122 165.507 97.9935 166.616C97.3748 167.725 96.4575 168.568 95.2415 169.144C94.0468 169.741 92.5535 170.04 90.7615 170.04ZM90.6015 159.032C91.3695 159.032 91.9882 158.861 92.4575 158.52C92.9482 158.157 93.3108 157.709 93.5455 157.176C93.7802 156.621 93.9082 156.045 93.9295 155.448C93.9508 155.213 93.9615 154.883 93.9615 154.456C93.9615 154.008 93.9508 153.667 93.9295 153.432C93.9082 152.835 93.7802 152.269 93.5455 151.736C93.3108 151.181 92.9482 150.733 92.4575 150.392C91.9882 150.051 91.3695 149.88 90.6015 149.88C89.7908 149.88 89.1508 150.061 88.6815 150.424C88.2122 150.765 87.8708 151.224 87.6575 151.8C87.4442 152.376 87.3162 153.005 87.2735 153.688C87.2522 154.2 87.2522 154.701 87.2735 155.192C87.3162 155.896 87.4442 156.536 87.6575 157.112C87.8708 157.688 88.2122 158.157 88.6815 158.52C89.1508 158.861 89.7908 159.032 90.6015 159.032ZM104.106 163C103.871 163 103.679 162.925 103.53 162.776C103.38 162.627 103.306 162.435 103.306 162.2V141.4C103.306 141.165 103.38 140.973 103.53 140.824C103.679 140.675 103.871 140.6 104.106 140.6H113.61C115.38 140.6 116.831 140.856 117.962 141.368C119.092 141.88 119.924 142.605 120.458 143.544C121.012 144.483 121.29 145.581 121.29 146.84C121.29 147.629 121.14 148.323 120.842 148.92C120.564 149.517 120.212 150.008 119.786 150.392C119.38 150.776 118.986 151.064 118.602 151.256C119.434 151.64 120.159 152.28 120.778 153.176C121.418 154.051 121.738 155.096 121.738 156.312C121.738 157.656 121.439 158.829 120.842 159.832C120.244 160.835 119.359 161.613 118.186 162.168C117.012 162.723 115.583 163 113.898 163H104.106ZM108.394 159.256H113.29C114.335 159.256 115.124 158.968 115.658 158.392C116.191 157.795 116.458 157.091 116.458 156.28C116.458 155.448 116.18 154.755 115.626 154.2C115.092 153.624 114.314 153.336 113.29 153.336H108.394V159.256ZM108.394 149.656H113.002C114.004 149.656 114.751 149.411 115.242 148.92C115.754 148.408 116.01 147.757 116.01 146.968C116.01 146.179 115.754 145.549 115.242 145.08C114.751 144.589 114.004 144.344 113.002 144.344H108.394V149.656ZM130.1 163.32C128.969 163.32 127.956 163.107 127.06 162.68C126.164 162.232 125.449 161.635 124.916 160.888C124.382 160.141 124.116 159.309 124.116 158.392C124.116 156.877 124.724 155.683 125.94 154.808C127.177 153.933 128.798 153.336 130.804 153.016L134.996 152.408V151.832C134.996 151 134.804 150.36 134.42 149.912C134.036 149.464 133.364 149.24 132.404 149.24C131.7 149.24 131.134 149.379 130.708 149.656C130.281 149.933 129.95 150.296 129.716 150.744C129.545 151.021 129.3 151.16 128.98 151.16H125.94C125.705 151.16 125.524 151.096 125.396 150.968C125.268 150.819 125.214 150.648 125.236 150.456C125.236 150.093 125.374 149.667 125.652 149.176C125.929 148.685 126.356 148.205 126.932 147.736C127.508 147.245 128.244 146.84 129.14 146.52C130.036 146.2 131.134 146.04 132.436 146.04C133.78 146.04 134.932 146.2 135.892 146.52C136.852 146.84 137.62 147.288 138.196 147.864C138.772 148.44 139.198 149.112 139.476 149.88C139.753 150.627 139.892 151.437 139.892 152.312V162.2C139.892 162.435 139.817 162.627 139.668 162.776C139.518 162.925 139.326 163 139.092 163H135.956C135.742 163 135.561 162.925 135.412 162.776C135.262 162.627 135.188 162.435 135.188 162.2V161.016C134.91 161.421 134.537 161.805 134.068 162.168C133.598 162.509 133.033 162.787 132.372 163C131.731 163.213 130.974 163.32 130.1 163.32ZM131.38 159.992C132.084 159.992 132.713 159.843 133.268 159.544C133.822 159.245 134.26 158.787 134.58 158.168C134.9 157.549 135.06 156.771 135.06 155.832V155.288L132.084 155.768C130.932 155.96 130.089 156.248 129.556 156.632C129.022 157.016 128.756 157.485 128.756 158.04C128.756 158.445 128.873 158.797 129.108 159.096C129.364 159.395 129.694 159.619 130.1 159.768C130.505 159.917 130.932 159.992 131.38 159.992ZM151.158 163.32C149.601 163.32 148.225 163.032 147.03 162.456C145.857 161.88 144.929 161.048 144.246 159.96C143.563 158.851 143.19 157.528 143.126 155.992C143.105 155.651 143.094 155.224 143.094 154.712C143.094 154.179 143.105 153.741 143.126 153.4C143.19 151.843 143.553 150.52 144.214 149.432C144.897 148.323 145.835 147.48 147.03 146.904C148.225 146.328 149.601 146.04 151.158 146.04C152.587 146.04 153.803 146.243 154.806 146.648C155.809 147.032 156.63 147.523 157.27 148.12C157.91 148.717 158.379 149.347 158.678 150.008C158.998 150.648 159.169 151.213 159.19 151.704C159.211 151.917 159.137 152.109 158.966 152.28C158.817 152.429 158.635 152.504 158.422 152.504H154.998C154.785 152.504 154.614 152.451 154.486 152.344C154.379 152.216 154.273 152.045 154.166 151.832C153.867 151.085 153.483 150.552 153.014 150.232C152.545 149.912 151.958 149.752 151.254 149.752C150.294 149.752 149.537 150.061 148.982 150.68C148.427 151.299 148.129 152.259 148.086 153.56C148.065 154.392 148.065 155.149 148.086 155.832C148.15 157.155 148.449 158.115 148.982 158.712C149.537 159.309 150.294 159.608 151.254 159.608C152.001 159.608 152.598 159.448 153.046 159.128C153.494 158.808 153.867 158.275 154.166 157.528C154.251 157.315 154.358 157.155 154.486 157.048C154.614 156.92 154.785 156.856 154.998 156.856H158.422C158.635 156.856 158.817 156.941 158.966 157.112C159.137 157.261 159.211 157.443 159.19 157.656C159.169 158.019 159.062 158.445 158.87 158.936C158.699 159.427 158.411 159.928 158.006 160.44C157.622 160.952 157.121 161.432 156.502 161.88C155.883 162.307 155.126 162.659 154.23 162.936C153.355 163.192 152.331 163.32 151.158 163.32ZM167.225 163.32C166.094 163.32 165.081 163.107 164.185 162.68C163.289 162.232 162.574 161.635 162.041 160.888C161.507 160.141 161.241 159.309 161.241 158.392C161.241 156.877 161.849 155.683 163.065 154.808C164.302 153.933 165.923 153.336 167.929 153.016L172.121 152.408V151.832C172.121 151 171.929 150.36 171.545 149.912C171.161 149.464 170.489 149.24 169.529 149.24C168.825 149.24 168.259 149.379 167.833 149.656C167.406 149.933 167.075 150.296 166.841 150.744C166.67 151.021 166.425 151.16 166.105 151.16H163.065C162.83 151.16 162.649 151.096 162.521 150.968C162.393 150.819 162.339 150.648 162.361 150.456C162.361 150.093 162.499 149.667 162.777 149.176C163.054 148.685 163.481 148.205 164.057 147.736C164.633 147.245 165.369 146.84 166.265 146.52C167.161 146.2 168.259 146.04 169.561 146.04C170.905 146.04 172.057 146.2 173.017 146.52C173.977 146.84 174.745 147.288 175.321 147.864C175.897 148.44 176.323 149.112 176.601 149.88C176.878 150.627 177.017 151.437 177.017 152.312V162.2C177.017 162.435 176.942 162.627 176.793 162.776C176.643 162.925 176.451 163 176.217 163H173.081C172.867 163 172.686 162.925 172.537 162.776C172.387 162.627 172.313 162.435 172.313 162.2V161.016C172.035 161.421 171.662 161.805 171.193 162.168C170.723 162.509 170.158 162.787 169.497 163C168.856 163.213 168.099 163.32 167.225 163.32ZM168.505 159.992C169.209 159.992 169.838 159.843 170.393 159.544C170.947 159.245 171.385 158.787 171.705 158.168C172.025 157.549 172.185 156.771 172.185 155.832V155.288L169.209 155.768C168.057 155.96 167.214 156.248 166.681 156.632C166.147 157.016 165.881 157.485 165.881 158.04C165.881 158.445 165.998 158.797 166.233 159.096C166.489 159.395 166.819 159.619 167.225 159.768C167.63 159.917 168.057 159.992 168.505 159.992Z" fill="#9B0101"/>
<defs>
<linearGradient id="paint0_linear_8_24" x1="130.5" y1="0.499999" x2="178.5" y2="158.5" gradientUnits="userSpaceOnUse">
<stop offset="0.353376" stop-color="#9B0101"/>
<stop offset="1" stop-color="#331010"/>
</linearGradient>
</defs>
</svg>
