<svg width="24" height="24" viewBox="0 0 24 24" fill="none" xmlns="http://www.w3.org/2000/svg">
<g clip-path="url(#clip0_132_279)">
<path d="M23.2995 20.118L18.027 14.8455C18.945 13.359 19.5 11.625 19.5 9.75C19.5 4.365 15.135 0 9.75 0C4.365 0 0 4.365 0 9.75C0 15.135 4.365 19.5 9.75 19.5C11.625 19.5 13.359 18.945 14.844 18.0285L20.118 23.301C20.5424 23.7114 21.1112 23.9386 21.7015 23.9335C22.2919 23.9285 22.8567 23.6917 23.2741 23.2741C23.6915 22.8565 23.928 22.2916 23.9328 21.7012C23.9375 21.1109 23.7101 20.5422 23.2995 20.118ZM9.75 16.5C6.0225 16.5 3 13.4775 3 9.75C3 6.0225 6.0225 3 9.75 3C13.4775 3 16.5 6.0225 16.5 9.75C16.5 13.4775 13.4775 16.5 9.75 16.5Z" fill="white"/>
</g>
<defs>
<clipPath id="clip0_132_279">
<rect width="24" height="24" fill="white"/>
</clipPath>
</defs>
</svg>
