<svg width="54" height="38" viewBox="0 0 54 38" fill="none" xmlns="http://www.w3.org/2000/svg">
<path d="M0 0H46C50.4183 0 54 3.58172 54 8V30C54 34.4183 50.4183 38 46 38H0V0Z" fill="#AD3838"/>
<g clip-path="url(#clip0_188_63)">
<path d="M36.5 10.5H18.5C17.2625 10.5 16.2612 11.5125 16.2612 12.75L16.25 26.25C16.25 27.4875 17.2625 28.5 18.5 28.5H36.5C37.7375 28.5 38.75 27.4875 38.75 26.25V12.75C38.75 11.5125 37.7375 10.5 36.5 10.5ZM36.05 15.2812L28.0962 20.2537C27.7362 20.4788 27.2638 20.4788 26.9038 20.2537L18.95 15.2812C18.6688 15.1013 18.5 14.7975 18.5 14.4713C18.5 13.7175 19.3213 13.2675 19.9625 13.6612L27.5 18.375L35.0375 13.6612C35.6788 13.2675 36.5 13.7175 36.5 14.4713C36.5 14.7975 36.3313 15.1013 36.05 15.2812Z" fill="white"/>
</g>
<defs>
<clipPath id="clip0_188_63">
<rect width="27" height="27" fill="white" transform="translate(14 6)"/>
</clipPath>
</defs>
</svg>
